<svg style="display: none;" version="1.1" xmlns="http://www.w3.org/2000/svg" xmlns:xlink="http://www.w3.org/1999/xlink">
  <defs>
    <g id="icon-reset"><path d="M16 6h-6l2.243-2.243c-1.133-1.133-2.64-1.757-4.243-1.757s-3.109 0.624-4.243 1.757c-1.133 1.133-1.757 2.64-1.757 4.243s0.624 3.109 1.757 4.243c1.133 1.133 2.64 1.757 4.243 1.757s3.109-0.624 4.243-1.757c0.095-0.095 0.185-0.192 0.273-0.292l1.505 1.317c-1.466 1.674-3.62 2.732-6.020 2.732-4.418 0-8-3.582-8-8s3.582-8 8-8c2.209 0 4.209 0.896 5.656 2.344l2.343-2.344v6z"></path></g>
    <g id="icon-start"><path d="M3 2l10 6-10 6z"></path></g>
    <g id="icon-stop"><path d="M2 2h12v12h-12z"></path></g>
    <!-- SVGs downloaded from https://fontawesome.com/icons/,  license: https://fontawesome.com/license -->
    <g id="icon-spinner"><path d="M8 0c-4.355 0-7.898 3.481-7.998 7.812 0.092-3.779 2.966-6.812 6.498-6.812 3.59 0 6.5 3.134 6.5 7 0 0.828 0.672 1.5 1.5 1.5s1.5-0.672 1.5-1.5c0-4.418-3.582-8-8-8zM8 16c4.355 0 7.898-3.481 7.998-7.812-0.092 3.779-2.966 6.812-6.498 6.812-3.59 0-6.5-3.134-6.5-7 0-0.828-0.672-1.5-1.5-1.5s-1.5 0.672-1.5 1.5c0 4.418 3.582 8 8 8z"></path></g>
    <g id="icon-switch"><path d="M10 2.29v2.124c0.566 0.247 1.086 0.6 1.536 1.050 0.944 0.944 1.464 2.2 1.464 3.536s-0.52 2.591-1.464 3.536c-0.944 0.944-2.2 1.464-3.536 1.464s-2.591-0.52-3.536-1.464c-0.944-0.944-1.464-2.2-1.464-3.536s0.52-2.591 1.464-3.536c0.45-0.45 0.97-0.803 1.536-1.050v-2.124c-2.891 0.861-5 3.539-5 6.71 0 3.866 3.134 7 7 7s7-3.134 7-7c0-3.171-2.109-5.849-5-6.71zM7 0h2v8h-2z"></path></g>
    <g id="icon-radio-checked"><path d="M8 0c-4.418 0-8 3.582-8 8s3.582 8 8 8 8-3.582 8-8-3.582-8-8-8zM8 14c-3.314 0-6-2.686-6-6s2.686-6 6-6c3.314 0 6 2.686 6 6s-2.686 6-6 6zM5 8c0-1.657 1.343-3 3-3s3 1.343 3 3c0 1.657-1.343 3-3 3s-3-1.343-3-3z"></path></g>
    <g id="icon-radio-unchecked"><path d="M8 0c-4.418 0-8 3.582-8 8s3.582 8 8 8 8-3.582 8-8-3.582-8-8-8zM8 14c-3.314 0-6-2.686-6-6s2.686-6 6-6c3.314 0 6 2.686 6 6s-2.686 6-6 6z"></path></g>
    <g id="icon-config"><path d="M512.1 191l-8.2 14.3c-3 5.3-9.4 7.5-15.1 5.4-11.8-4.4-22.6-10.7-32.1-18.6-4.6-3.8-5.8-10.5-2.8-15.7l8.2-14.3c-6.9-8-12.3-17.3-15.9-27.4h-16.5c-6 0-11.2-4.3-12.2-10.3-2-12-2.1-24.6 0-37.1 1-6 6.2-10.4 12.2-10.4h16.5c3.6-10.1 9-19.4 15.9-27.4l-8.2-14.3c-3-5.2-1.9-11.9 2.8-15.7 9.5-7.9 20.4-14.2 32.1-18.6 5.7-2.1 12.1.1 15.1 5.4l8.2 14.3c10.5-1.9 21.2-1.9 31.7 0L552 6.3c3-5.3 9.4-7.5 15.1-5.4 11.8 4.4 22.6 10.7 32.1 18.6 4.6 3.8 5.8 10.5 2.8 15.7l-8.2 14.3c6.9 8 12.3 17.3 15.9 27.4h16.5c6 0 11.2 4.3 12.2 10.3 2 12 2.1 24.6 0 37.1-1 6-6.2 10.4-12.2 10.4h-16.5c-3.6 10.1-9 19.4-15.9 27.4l8.2 14.3c3 5.2 1.9 11.9-2.8 15.7-9.5 7.9-20.4 14.2-32.1 18.6-5.7 2.1-12.1-.1-15.1-5.4l-8.2-14.3c-10.4 1.9-21.2 1.9-31.7 0zm-10.5-58.8c38.5 29.6 82.4-14.3 52.8-52.8-38.5-29.7-82.4 14.3-52.8 52.8zM386.3 286.1l33.7 16.8c10.1 5.8 14.5 18.1 10.5 29.1-8.9 24.2-26.4 46.4-42.6 65.8-7.4 8.9-20.2 11.1-30.3 5.3l-29.1-16.8c-16 13.7-34.6 24.6-54.9 31.7v33.6c0 11.6-8.3 21.6-19.7 23.6-24.6 4.2-50.4 4.4-75.9 0-11.5-2-20-11.9-20-23.6V418c-20.3-7.2-38.9-18-54.9-31.7L74 403c-10 5.8-22.9 3.6-30.3-5.3-16.2-19.4-33.3-41.6-42.2-65.7-4-10.9.4-23.2 10.5-29.1l33.3-16.8c-3.9-20.9-3.9-42.4 0-63.4L12 205.8c-10.1-5.8-14.6-18.1-10.5-29 8.9-24.2 26-46.4 42.2-65.8 7.4-8.9 20.2-11.1 30.3-5.3l29.1 16.8c16-13.7 34.6-24.6 54.9-31.7V57.1c0-11.5 8.2-21.5 19.6-23.5 24.6-4.2 50.5-4.4 76-.1 11.5 2 20 11.9 20 23.6v33.6c20.3 7.2 38.9 18 54.9 31.7l29.1-16.8c10-5.8 22.9-3.6 30.3 5.3 16.2 19.4 33.2 41.6 42.1 65.8 4 10.9.1 23.2-10 29.1l-33.7 16.8c3.9 21 3.9 42.5 0 63.5zm-117.6 21.1c59.2-77-28.7-164.9-105.7-105.7-59.2 77 28.7 164.9 105.7 105.7zm243.4 182.7l-8.2 14.3c-3 5.3-9.4 7.5-15.1 5.4-11.8-4.4-22.6-10.7-32.1-18.6-4.6-3.8-5.8-10.5-2.8-15.7l8.2-14.3c-6.9-8-12.3-17.3-15.9-27.4h-16.5c-6 0-11.2-4.3-12.2-10.3-2-12-2.1-24.6 0-37.1 1-6 6.2-10.4 12.2-10.4h16.5c3.6-10.1 9-19.4 15.9-27.4l-8.2-14.3c-3-5.2-1.9-11.9 2.8-15.7 9.5-7.9 20.4-14.2 32.1-18.6 5.7-2.1 12.1.1 15.1 5.4l8.2 14.3c10.5-1.9 21.2-1.9 31.7 0l8.2-14.3c3-5.3 9.4-7.5 15.1-5.4 11.8 4.4 22.6 10.7 32.1 18.6 4.6 3.8 5.8 10.5 2.8 15.7l-8.2 14.3c6.9 8 12.3 17.3 15.9 27.4h16.5c6 0 11.2 4.3 12.2 10.3 2 12 2.1 24.6 0 37.1-1 6-6.2 10.4-12.2 10.4h-16.5c-3.6 10.1-9 19.4-15.9 27.4l8.2 14.3c3 5.2 1.9 11.9-2.8 15.7-9.5 7.9-20.4 14.2-32.1 18.6-5.7 2.1-12.1-.1-15.1-5.4l-8.2-14.3c-10.4 1.9-21.2 1.9-31.7 0zM501.6 431c38.5 29.6 82.4-14.3 52.8-52.8-38.5-29.6-82.4 14.3-52.8 52.8z"/></g>
    <g id="icon-cog"><path d="M444.788 291.1l42.616 24.599c4.867 2.809 7.126 8.618 5.459 13.985-11.07 35.642-29.97 67.842-54.689 94.586a12.016 12.016 0 0 1-14.832 2.254l-42.584-24.595a191.577 191.577 0 0 1-60.759 35.13v49.182a12.01 12.01 0 0 1-9.377 11.718c-34.956 7.85-72.499 8.256-109.219.007-5.49-1.233-9.403-6.096-9.403-11.723v-49.184a191.555 191.555 0 0 1-60.759-35.13l-42.584 24.595a12.016 12.016 0 0 1-14.832-2.254c-24.718-26.744-43.619-58.944-54.689-94.586-1.667-5.366.592-11.175 5.459-13.985L67.212 291.1a193.48 193.48 0 0 1 0-70.199l-42.616-24.599c-4.867-2.809-7.126-8.618-5.459-13.985 11.07-35.642 29.97-67.842 54.689-94.586a12.016 12.016 0 0 1 14.832-2.254l42.584 24.595a191.577 191.577 0 0 1 60.759-35.13V25.759a12.01 12.01 0 0 1 9.377-11.718c34.956-7.85 72.499-8.256 109.219-.007 5.49 1.233 9.403 6.096 9.403 11.723v49.184a191.555 191.555 0 0 1 60.759 35.13l42.584-24.595a12.016 12.016 0 0 1 14.832 2.254c24.718 26.744 43.619 58.944 54.689 94.586 1.667 5.366-.592 11.175-5.459 13.985L444.788 220.9a193.485 193.485 0 0 1 0 70.2zM336 256c0-44.112-35.888-80-80-80s-80 35.888-80 80 35.888 80 80 80 80-35.888 80-80z"/></g>
    <g id="icon-projects"><path d="M336 64h-80c0-35.3-28.7-64-64-64s-64 28.7-64 64H48C21.5 64 0 85.5 0 112v352c0 26.5 21.5 48 48 48h288c26.5 0 48-21.5 48-48V112c0-26.5-21.5-48-48-48zM96 424c-13.3 0-24-10.7-24-24s10.7-24 24-24 24 10.7 24 24-10.7 24-24 24zm0-96c-13.3 0-24-10.7-24-24s10.7-24 24-24 24 10.7 24 24-10.7 24-24 24zm0-96c-13.3 0-24-10.7-24-24s10.7-24 24-24 24 10.7 24 24-10.7 24-24 24zm96-192c13.3 0 24 10.7 24 24s-10.7 24-24 24-24-10.7-24-24 10.7-24 24-24zm128 368c0 4.4-3.6 8-8 8H168c-4.4 0-8-3.6-8-8v-16c0-4.4 3.6-8 8-8h144c4.4 0 8 3.6 8 8v16zm0-96c0 4.4-3.6 8-8 8H168c-4.4 0-8-3.6-8-8v-16c0-4.4 3.6-8 8-8h144c4.4 0 8 3.6 8 8v16zm0-96c0 4.4-3.6 8-8 8H168c-4.4 0-8-3.6-8-8v-16c0-4.4 3.6-8 8-8h144c4.4 0 8 3.6 8 8v16z"/></g>
    <g id="icon-project"><path d="M464 128H272l-64-64H48C21.49 64 0 85.49 0 112v288c0 26.51 21.49 48 48 48h416c26.51 0 48-21.49 48-48V176c0-26.51-21.49-48-48-48zm-6 272H54c-3.314 0-6-2.678-6-5.992V117.992A5.993 5.993 0 0 1 54 112h134.118l64 64H458a6 6 0 0 1 6 6v212a6 6 0 0 1-6 6z"/></g>
    <g id="icon-proc"><path d="M369.941 97.941l-83.882-83.882A48 48 0 0 0 252.118 0H48C21.49 0 0 21.49 0 48v416c0 26.51 21.49 48 48 48h288c26.51 0 48-21.49 48-48V131.882a48 48 0 0 0-14.059-33.941zM332.118 128H256V51.882L332.118 128zM48 464V48h160v104c0 13.255 10.745 24 24 24h104v288H48zm101.677-115.115L116.854 320l32.822-28.885a8.793 8.793 0 0 0 .605-12.624l-17.403-18.564c-3.384-3.613-8.964-3.662-12.438-.401L62.78 313.58c-3.703 3.474-3.704 9.367.001 12.84l57.659 54.055a8.738 8.738 0 0 0 6.012 2.381 8.746 8.746 0 0 0 6.427-2.782l17.403-18.563a8.795 8.795 0 0 0-.605-12.626zm84.284-127.85l-24.401-7.084a8.796 8.796 0 0 0-10.905 5.998L144.04 408.061c-1.353 4.66 1.338 9.552 5.998 10.905l24.403 7.084c4.68 1.355 9.557-1.354 10.905-5.998l54.612-188.112c1.354-4.66-1.337-9.552-5.997-10.905zm87.258 92.545l-57.658-54.055c-3.526-3.307-9.099-3.165-12.439.401l-17.403 18.563a8.795 8.795 0 0 0 .605 12.625L267.146 320l-32.822 28.885a8.793 8.793 0 0 0-.605 12.624l17.403 18.564a8.797 8.797 0 0 0 12.439.401h-.001l57.66-54.055c3.703-3.473 3.703-9.366-.001-12.839z"/></g>
    <g id="icon-move-up"><path d="M240.971 130.524l194.343 194.343c9.373 9.373 9.373 24.569 0 33.941l-22.667 22.667c-9.357 9.357-24.522 9.375-33.901.04L224 227.495 69.255 381.516c-9.379 9.335-24.544 9.317-33.901-.04l-22.667-22.667c-9.373-9.373-9.373-24.569 0-33.941L207.03    130.525c9.372-9.373 24.568-9.373 33.941-.001z"/></g>
    <g id="icon-move-down"><path d="M207.029 381.476L12.686 187.132c-9.373-9.373-9.373-24.569 0-33.941l22.667-22.667c9.357-9.357 24.522-9.375 33.901-.04L224 284.505l154.745-154.021c9.379-9.335 24.544-9.317 33.901.04l22.667 22.667c9.373 9.373 9.373 24.569 0 33.941L240.971 381.476c-9.373 9.372-24.569 9.372-33.942 0z"/></g>
    <g id="icon-plus" viewBox="0 0 448 512"><path d="M448 294.2v-76.4c0-13.3-10.7-24-24-24H286.2V56c0-13.3-10.7-24-24-24h-76.4c-13.3 0-24 10.7-24 24v137.8H24c-13.3 0-24 10.7-24 24v76.4c0 13.3 10.7 24 24 24h137.8V456c0 13.3 10.7 24 24 24h76.4c13.3 0 24-10.7 24-24V318.2H424c13.3 0 24-10.7 24-24z"/></g>
    <g id="icon-trash"><path d="M192 188v216c0 6.627-5.373 12-12 12h-24c-6.627 0-12-5.373-12-12V188c0-6.627 5.373-12 12-12h24c6.627 0 12 5.373 12 12zm100-12h-24c-6.627 0-12 5.373-12 12v216c0 6.627 5.373 12 12 12h24c6.627 0 12-5.373 12-12V188c0-6.627-5.373-12-12-12zm132-96c13.255 0 24 10.745 24 24v12c0 6.627-5.373 12-12 12h-20v336c0 26.51-21.49 48-48 48H80c-26.51 0-48-21.49-48-48V128H12c-6.627 0-12-5.373-12-12v-12c0-13.255 10.745-24 24-24h74.411l34.018-56.696A48 48 0 0 1 173.589 0h100.823a48 48 0 0 1 41.16 23.304L349.589 80H424zm-269.611 0h139.223L276.16 50.913A6 6 0 0 0 271.015 48h-94.028a6 6 0 0 0-5.145 2.913L154.389 80zM368 128H80v330a6 6 0 0 0 6 6h276a6 6 0 0 0 6-6V128z"/></g>
    <g id="icon-pick"><path d="M500 224h-30.364C455.724 130.325 381.675 56.276 288 42.364V12c0-6.627-5.373-12-12-12h-40c-6.627 0-12 5.373-12 12v30.364C130.325 56.276 56.276 130.325 42.364 224H12c-6.627 0-12 5.373-12 12v40c0 6.627 5.373 12 12 12h30.364C56.276 381.675 130.325 455.724 224 469.636V500c0 6.627 5.373 12 12 12h40c6.627 0 12-5.373 12-12v-30.364C381.675 455.724 455.724 381.675 469.636 288H500c6.627 0 12-5.373 12-12v-40c0-6.627-5.373-12-12-12zM288 404.634V364c0-6.627-5.373-12-12-12h-40c-6.627 0-12 5.373-12 12v40.634C165.826 392.232 119.783 346.243 107.366 288H148c6.627 0 12-5.373 12-12v-40c0-6.627-5.373-12-12-12h-40.634C119.768 165.826 165.757 119.783 224 107.366V148c0 6.627 5.373 12 12 12h40c6.627 0 12-5.373 12-12v-40.634C346.174 119.768 392.217 165.757 404.634 224H364c-6.627 0-12 5.373-12 12v40c0 6.627 5.373 12 12 12h40.634C392.232 346.174 346.243 392.217 288 404.634zM288 256c0 17.673-14.327 32-32 32s-32-14.327-32-32c0-17.673 14.327-32 32-32s32 14.327 32 32z"/><vg>
    <g id="icon-sound-on"><path d="M256 88.017v335.964c0 21.438-25.943 31.998-40.971 16.971L126.059 352H24c-13.255 0-24-10.745-24-24V184c0-13.255 10.745-24 24-24h102.059l88.971-88.954c15.01-15.01 40.97-4.49 40.97 16.971zm182.056-77.876C422.982.92 403.283 5.668 394.061 20.745c-9.221 15.077-4.473 34.774 10.604 43.995C468.967 104.063 512 174.983 512 256c0 73.431-36.077 142.292-96.507 184.206-14.522 10.072-18.129 30.01-8.057 44.532 10.076 14.528 30.016 18.126 44.531 8.057C529.633 438.927 576 350.406 576 256c0-103.244-54.579-194.877-137.944-245.859zM480 256c0-68.547-36.15-129.777-91.957-163.901-15.076-9.22-34.774-4.471-43.994 10.607-9.22 15.078-4.471 34.774 10.607 43.994C393.067 170.188 416 211.048 416 256c0 41.964-20.62 81.319-55.158 105.276-14.521 10.073-18.128 30.01-8.056 44.532 6.216 8.96 16.185 13.765 26.322 13.765a31.862 31.862 0 0 0 18.21-5.709C449.091 377.953 480 318.938 480 256zm-96 0c0-33.717-17.186-64.35-45.972-81.944-15.079-9.214-34.775-4.463-43.992 10.616s-4.464 34.775 10.615 43.992C314.263 234.538 320 244.757 320 256a32.056 32.056 0 0 1-13.802 26.332c-14.524 10.069-18.136 30.006-8.067 44.53 10.07 14.525 30.008 18.136 44.53 8.067C368.546 316.983 384 287.478 384 256z"/></g>
    <g id="icon-sound-off"><path d="M256 88.017v335.964c0 21.438-25.943 31.998-40.971 16.971L126.059 352H24c-13.255 0-24-10.745-24-24V184c0-13.255 10.745-24 24-24h102.059l88.971-88.954c15.01-15.01 40.97-4.49 40.97 16.971z"/></g>
    <g id="icon-folder"><path d="M527.943 224H480v-48c0-26.51-21.49-48-48-48H272l-64-64H48C21.49 64 0 85.49 0 112v288c0 26.51 21.49 48 48 48h400a48.001 48.001 0 0 0 40.704-22.56l79.942-128c19.948-31.917-3.038-73.44-40.703-73.44zM54 112h134.118l64 64H426a6 6 0 0 1 6 6v42H152a48 48 0 0 0-41.098 23.202L48 351.449V117.993A5.993 5.993 0 0 1 54 112zm394 288H72l77.234-128H528l-80 128z"/></g>
  </defs>
</svg>
